<mxfile host="app.diagrams.net" modified="2020-05-18T12:11:09.890Z" agent="5.0 (Windows NT 10.0; Win64; x64) AppleWebKit/537.36 (KHTML, like Gecko) Chrome/80.0.3987.163 Safari/537.36" etag="Ytj0rr07rPtokjTsqcIf" version="13.1.2" type="github">
  <diagram id="sd3B13jJpRDf2u8jtMgA" name="Page-1">
    <mxGraphModel dx="1040" dy="527" grid="1" gridSize="10" guides="1" tooltips="1" connect="1" arrows="1" fold="1" page="1" pageScale="1" pageWidth="827" pageHeight="1169" math="1" shadow="0">
      <root>
        <mxCell id="0" />
        <mxCell id="1" parent="0" />
        <mxCell id="cKlKM32kicbf2RL1kfpF-74" value="" style="rounded=0;whiteSpace=wrap;html=1;fillColor=none;" parent="1" vertex="1">
          <mxGeometry x="265" y="277.5" width="40" height="102.5" as="geometry" />
        </mxCell>
        <mxCell id="cKlKM32kicbf2RL1kfpF-67" value="" style="rounded=0;whiteSpace=wrap;html=1;fillColor=none;dashed=1;" parent="1" vertex="1">
          <mxGeometry x="230" y="465" width="230" height="85" as="geometry" />
        </mxCell>
        <mxCell id="WeZ2IR0lr3XahTYSVris-6" value="" style="ellipse;whiteSpace=wrap;html=1;aspect=fixed;fillColor=none;" parent="1" vertex="1">
          <mxGeometry x="90" y="440" width="20" height="20" as="geometry" />
        </mxCell>
        <mxCell id="cKlKM32kicbf2RL1kfpF-1" value="" style="ellipse;whiteSpace=wrap;html=1;aspect=fixed;fillColor=none;" parent="1" vertex="1">
          <mxGeometry x="100" y="470" width="20" height="20" as="geometry" />
        </mxCell>
        <mxCell id="cKlKM32kicbf2RL1kfpF-4" value="" style="ellipse;whiteSpace=wrap;html=1;aspect=fixed;fillColor=none;" parent="1" vertex="1">
          <mxGeometry x="120" y="450" width="20" height="20" as="geometry" />
        </mxCell>
        <mxCell id="cKlKM32kicbf2RL1kfpF-5" value="" style="ellipse;whiteSpace=wrap;html=1;aspect=fixed;fillColor=none;" parent="1" vertex="1">
          <mxGeometry x="130" y="480" width="20" height="20" as="geometry" />
        </mxCell>
        <mxCell id="cKlKM32kicbf2RL1kfpF-6" value="" style="ellipse;whiteSpace=wrap;html=1;aspect=fixed;fillColor=none;" parent="1" vertex="1">
          <mxGeometry x="130" y="480" width="20" height="20" as="geometry" />
        </mxCell>
        <mxCell id="cKlKM32kicbf2RL1kfpF-7" value="" style="ellipse;whiteSpace=wrap;html=1;aspect=fixed;fillColor=none;" parent="1" vertex="1">
          <mxGeometry x="70" y="460" width="20" height="20" as="geometry" />
        </mxCell>
        <mxCell id="cKlKM32kicbf2RL1kfpF-8" value="" style="ellipse;whiteSpace=wrap;html=1;aspect=fixed;fillColor=none;" parent="1" vertex="1">
          <mxGeometry x="80" y="500" width="20" height="20" as="geometry" />
        </mxCell>
        <mxCell id="cKlKM32kicbf2RL1kfpF-9" value="" style="ellipse;whiteSpace=wrap;html=1;aspect=fixed;fillColor=none;" parent="1" vertex="1">
          <mxGeometry x="110" y="510" width="20" height="20" as="geometry" />
        </mxCell>
        <mxCell id="cKlKM32kicbf2RL1kfpF-10" value="" style="ellipse;whiteSpace=wrap;html=1;aspect=fixed;fillColor=none;" parent="1" vertex="1">
          <mxGeometry x="140" y="520" width="20" height="20" as="geometry" />
        </mxCell>
        <mxCell id="cKlKM32kicbf2RL1kfpF-11" value="" style="ellipse;whiteSpace=wrap;html=1;aspect=fixed;fillColor=none;" parent="1" vertex="1">
          <mxGeometry x="50" y="500" width="20" height="20" as="geometry" />
        </mxCell>
        <mxCell id="cKlKM32kicbf2RL1kfpF-12" value="" style="ellipse;whiteSpace=wrap;html=1;aspect=fixed;fillColor=none;" parent="1" vertex="1">
          <mxGeometry x="80" y="530" width="20" height="20" as="geometry" />
        </mxCell>
        <mxCell id="cKlKM32kicbf2RL1kfpF-13" value="&lt;b&gt;Candidate&amp;nbsp;Services&lt;/b&gt;" style="text;html=1;align=center;verticalAlign=middle;resizable=0;points=[];autosize=1;" parent="1" vertex="1">
          <mxGeometry x="42" y="415" width="130" height="20" as="geometry" />
        </mxCell>
        <mxCell id="cKlKM32kicbf2RL1kfpF-17" value="&lt;b&gt;Mapping&amp;nbsp;to New Space&lt;/b&gt;" style="rounded=1;whiteSpace=wrap;html=1;strokeWidth=2;" parent="1" vertex="1">
          <mxGeometry x="240" y="470" width="90" height="50" as="geometry" />
        </mxCell>
        <mxCell id="cKlKM32kicbf2RL1kfpF-19" value="&lt;b&gt;Skyline Calculation&lt;/b&gt;" style="rounded=1;whiteSpace=wrap;html=1;strokeWidth=2;" parent="1" vertex="1">
          <mxGeometry x="360" y="470" width="90" height="50" as="geometry" />
        </mxCell>
        <mxCell id="cKlKM32kicbf2RL1kfpF-20" value="&lt;b&gt;QoS Similarity Calculation&lt;/b&gt;" style="rounded=1;whiteSpace=wrap;html=1;strokeWidth=2;" parent="1" vertex="1">
          <mxGeometry x="507" y="450" width="90" height="50" as="geometry" />
        </mxCell>
        <mxCell id="cKlKM32kicbf2RL1kfpF-21" value="$$s_r$$" style="text;html=1;align=center;verticalAlign=middle;resizable=0;points=[];autosize=1;" parent="1" vertex="1">
          <mxGeometry x="320" y="415" width="60" height="20" as="geometry" />
        </mxCell>
        <mxCell id="cKlKM32kicbf2RL1kfpF-26" value="&lt;b&gt;Quality Constraints&lt;/b&gt;" style="text;html=1;align=center;verticalAlign=middle;resizable=0;points=[];autosize=1;" parent="1" vertex="1">
          <mxGeometry x="220" y="415" width="130" height="20" as="geometry" />
        </mxCell>
        <mxCell id="cKlKM32kicbf2RL1kfpF-28" value="&lt;b&gt;Dynamic Skyline Service Identification&lt;/b&gt;" style="text;html=1;align=center;verticalAlign=middle;resizable=0;points=[];autosize=1;" parent="1" vertex="1">
          <mxGeometry x="231" y="524" width="230" height="20" as="geometry" />
        </mxCell>
        <mxCell id="cKlKM32kicbf2RL1kfpF-29" value="" style="ellipse;whiteSpace=wrap;html=1;aspect=fixed;fillColor=none;" parent="1" vertex="1">
          <mxGeometry x="709" y="430" width="20" height="20" as="geometry" />
        </mxCell>
        <mxCell id="cKlKM32kicbf2RL1kfpF-30" value="" style="ellipse;whiteSpace=wrap;html=1;aspect=fixed;fillColor=none;" parent="1" vertex="1">
          <mxGeometry x="673" y="460" width="20" height="20" as="geometry" />
        </mxCell>
        <mxCell id="cKlKM32kicbf2RL1kfpF-31" value="" style="ellipse;whiteSpace=wrap;html=1;aspect=fixed;fillColor=none;" parent="1" vertex="1">
          <mxGeometry x="745" y="459" width="20" height="20" as="geometry" />
        </mxCell>
        <mxCell id="cKlKM32kicbf2RL1kfpF-32" value="" style="ellipse;whiteSpace=wrap;html=1;aspect=fixed;fillColor=none;" parent="1" vertex="1">
          <mxGeometry x="709" y="485" width="20" height="20" as="geometry" />
        </mxCell>
        <mxCell id="cKlKM32kicbf2RL1kfpF-33" value="" style="ellipse;whiteSpace=wrap;html=1;aspect=fixed;fillColor=none;" parent="1" vertex="1">
          <mxGeometry x="657" y="504" width="20" height="20" as="geometry" />
        </mxCell>
        <mxCell id="cKlKM32kicbf2RL1kfpF-34" value="" style="ellipse;whiteSpace=wrap;html=1;aspect=fixed;fillColor=none;" parent="1" vertex="1">
          <mxGeometry x="664" y="550" width="20" height="20" as="geometry" />
        </mxCell>
        <mxCell id="cKlKM32kicbf2RL1kfpF-35" value="" style="ellipse;whiteSpace=wrap;html=1;aspect=fixed;fillColor=none;" parent="1" vertex="1">
          <mxGeometry x="701" y="516" width="20" height="20" as="geometry" />
        </mxCell>
        <mxCell id="cKlKM32kicbf2RL1kfpF-36" value="" style="ellipse;whiteSpace=wrap;html=1;aspect=fixed;fillColor=none;" parent="1" vertex="1">
          <mxGeometry x="719" y="550" width="20" height="20" as="geometry" />
        </mxCell>
        <mxCell id="cKlKM32kicbf2RL1kfpF-37" value="" style="ellipse;whiteSpace=wrap;html=1;aspect=fixed;fillColor=none;" parent="1" vertex="1">
          <mxGeometry x="778" y="550" width="20" height="20" as="geometry" />
        </mxCell>
        <mxCell id="cKlKM32kicbf2RL1kfpF-38" value="" style="ellipse;whiteSpace=wrap;html=1;aspect=fixed;fillColor=none;" parent="1" vertex="1">
          <mxGeometry x="769" y="490" width="20" height="20" as="geometry" />
        </mxCell>
        <mxCell id="cKlKM32kicbf2RL1kfpF-39" value="" style="ellipse;whiteSpace=wrap;html=1;aspect=fixed;fillColor=none;" parent="1" vertex="1">
          <mxGeometry x="110" y="540" width="20" height="20" as="geometry" />
        </mxCell>
        <mxCell id="cKlKM32kicbf2RL1kfpF-40" value="" style="ellipse;whiteSpace=wrap;html=1;aspect=fixed;fillColor=none;" parent="1" vertex="1">
          <mxGeometry x="50" y="530" width="20" height="20" as="geometry" />
        </mxCell>
        <mxCell id="cKlKM32kicbf2RL1kfpF-42" value="" style="endArrow=none;html=1;" parent="1" source="cKlKM32kicbf2RL1kfpF-31" target="cKlKM32kicbf2RL1kfpF-29" edge="1">
          <mxGeometry width="50" height="50" relative="1" as="geometry">
            <mxPoint x="709" y="370" as="sourcePoint" />
            <mxPoint x="759" y="320" as="targetPoint" />
          </mxGeometry>
        </mxCell>
        <mxCell id="cKlKM32kicbf2RL1kfpF-44" value="" style="endArrow=none;html=1;" parent="1" source="cKlKM32kicbf2RL1kfpF-30" target="cKlKM32kicbf2RL1kfpF-29" edge="1">
          <mxGeometry width="50" height="50" relative="1" as="geometry">
            <mxPoint x="759" y="650" as="sourcePoint" />
            <mxPoint x="809" y="600" as="targetPoint" />
          </mxGeometry>
        </mxCell>
        <mxCell id="cKlKM32kicbf2RL1kfpF-45" value="" style="endArrow=none;html=1;exitX=0.5;exitY=0;exitDx=0;exitDy=0;" parent="1" source="cKlKM32kicbf2RL1kfpF-34" target="cKlKM32kicbf2RL1kfpF-33" edge="1">
          <mxGeometry width="50" height="50" relative="1" as="geometry">
            <mxPoint x="679" y="550" as="sourcePoint" />
            <mxPoint x="759" y="590" as="targetPoint" />
          </mxGeometry>
        </mxCell>
        <mxCell id="cKlKM32kicbf2RL1kfpF-46" value="" style="endArrow=none;html=1;exitX=1;exitY=0.5;exitDx=0;exitDy=0;" parent="1" source="cKlKM32kicbf2RL1kfpF-36" target="cKlKM32kicbf2RL1kfpF-37" edge="1">
          <mxGeometry width="50" height="50" relative="1" as="geometry">
            <mxPoint x="739" y="630" as="sourcePoint" />
            <mxPoint x="789" y="580" as="targetPoint" />
          </mxGeometry>
        </mxCell>
        <mxCell id="cKlKM32kicbf2RL1kfpF-48" value="" style="endArrow=none;html=1;entryX=0.5;entryY=0;entryDx=0;entryDy=0;" parent="1" source="cKlKM32kicbf2RL1kfpF-38" target="cKlKM32kicbf2RL1kfpF-37" edge="1">
          <mxGeometry width="50" height="50" relative="1" as="geometry">
            <mxPoint x="749" y="570" as="sourcePoint" />
            <mxPoint x="780.0557280900009" y="554.4721359549995" as="targetPoint" />
          </mxGeometry>
        </mxCell>
        <mxCell id="cKlKM32kicbf2RL1kfpF-49" value="" style="endArrow=none;html=1;exitX=0;exitY=0.5;exitDx=0;exitDy=0;" parent="1" source="cKlKM32kicbf2RL1kfpF-38" target="cKlKM32kicbf2RL1kfpF-32" edge="1">
          <mxGeometry width="50" height="50" relative="1" as="geometry">
            <mxPoint x="759" y="580" as="sourcePoint" />
            <mxPoint x="790.0557280900009" y="564.4721359549995" as="targetPoint" />
          </mxGeometry>
        </mxCell>
        <mxCell id="cKlKM32kicbf2RL1kfpF-50" value="" style="endArrow=none;html=1;exitX=1;exitY=0.5;exitDx=0;exitDy=0;entryX=0;entryY=0.5;entryDx=0;entryDy=0;" parent="1" source="cKlKM32kicbf2RL1kfpF-34" target="cKlKM32kicbf2RL1kfpF-36" edge="1">
          <mxGeometry width="50" height="50" relative="1" as="geometry">
            <mxPoint x="769" y="590" as="sourcePoint" />
            <mxPoint x="800.0557280900009" y="574.4721359549995" as="targetPoint" />
          </mxGeometry>
        </mxCell>
        <mxCell id="cKlKM32kicbf2RL1kfpF-51" value="" style="endArrow=none;html=1;exitX=1;exitY=0.5;exitDx=0;exitDy=0;entryX=0;entryY=0;entryDx=0;entryDy=0;" parent="1" source="cKlKM32kicbf2RL1kfpF-33" target="cKlKM32kicbf2RL1kfpF-35" edge="1">
          <mxGeometry width="50" height="50" relative="1" as="geometry">
            <mxPoint x="779" y="600" as="sourcePoint" />
            <mxPoint x="699" y="530" as="targetPoint" />
          </mxGeometry>
        </mxCell>
        <mxCell id="cKlKM32kicbf2RL1kfpF-52" value="" style="endArrow=none;html=1;exitX=1;exitY=1;exitDx=0;exitDy=0;entryX=0.5;entryY=0;entryDx=0;entryDy=0;" parent="1" source="cKlKM32kicbf2RL1kfpF-35" target="cKlKM32kicbf2RL1kfpF-36" edge="1">
          <mxGeometry width="50" height="50" relative="1" as="geometry">
            <mxPoint x="789" y="610" as="sourcePoint" />
            <mxPoint x="820.0557280900009" y="594.4721359549995" as="targetPoint" />
          </mxGeometry>
        </mxCell>
        <mxCell id="cKlKM32kicbf2RL1kfpF-53" value="" style="endArrow=none;html=1;exitX=0;exitY=1;exitDx=0;exitDy=0;entryX=0.5;entryY=0;entryDx=0;entryDy=0;" parent="1" source="cKlKM32kicbf2RL1kfpF-30" target="cKlKM32kicbf2RL1kfpF-33" edge="1">
          <mxGeometry width="50" height="50" relative="1" as="geometry">
            <mxPoint x="799" y="620" as="sourcePoint" />
            <mxPoint x="830.0557280900009" y="604.4721359549995" as="targetPoint" />
          </mxGeometry>
        </mxCell>
        <mxCell id="cKlKM32kicbf2RL1kfpF-54" value="" style="endArrow=none;html=1;exitX=1;exitY=1;exitDx=0;exitDy=0;entryX=0;entryY=0;entryDx=0;entryDy=0;" parent="1" source="cKlKM32kicbf2RL1kfpF-30" target="cKlKM32kicbf2RL1kfpF-32" edge="1">
          <mxGeometry width="50" height="50" relative="1" as="geometry">
            <mxPoint x="809" y="630" as="sourcePoint" />
            <mxPoint x="840.0557280900009" y="614.4721359549995" as="targetPoint" />
          </mxGeometry>
        </mxCell>
        <mxCell id="cKlKM32kicbf2RL1kfpF-55" value="" style="endArrow=none;html=1;exitX=1;exitY=0;exitDx=0;exitDy=0;entryX=0;entryY=1;entryDx=0;entryDy=0;" parent="1" source="cKlKM32kicbf2RL1kfpF-32" target="cKlKM32kicbf2RL1kfpF-31" edge="1">
          <mxGeometry width="50" height="50" relative="1" as="geometry">
            <mxPoint x="819" y="640" as="sourcePoint" />
            <mxPoint x="850.0557280900009" y="624.4721359549995" as="targetPoint" />
          </mxGeometry>
        </mxCell>
        <mxCell id="cKlKM32kicbf2RL1kfpF-56" value="" style="endArrow=none;html=1;exitX=1;exitY=0;exitDx=0;exitDy=0;entryX=0;entryY=1;entryDx=0;entryDy=0;" parent="1" source="cKlKM32kicbf2RL1kfpF-36" target="cKlKM32kicbf2RL1kfpF-38" edge="1">
          <mxGeometry width="50" height="50" relative="1" as="geometry">
            <mxPoint x="829" y="650" as="sourcePoint" />
            <mxPoint x="860.0557280900009" y="634.4721359549995" as="targetPoint" />
          </mxGeometry>
        </mxCell>
        <mxCell id="cKlKM32kicbf2RL1kfpF-57" value="" style="endArrow=none;html=1;exitX=1;exitY=0;exitDx=0;exitDy=0;entryX=0;entryY=1;entryDx=0;entryDy=0;" parent="1" source="cKlKM32kicbf2RL1kfpF-34" target="cKlKM32kicbf2RL1kfpF-35" edge="1">
          <mxGeometry width="50" height="50" relative="1" as="geometry">
            <mxPoint x="839" y="660" as="sourcePoint" />
            <mxPoint x="870.0557280900009" y="644.4721359549995" as="targetPoint" />
          </mxGeometry>
        </mxCell>
        <mxCell id="cKlKM32kicbf2RL1kfpF-60" value="" style="endArrow=classic;html=1;exitX=1;exitY=0.5;exitDx=0;exitDy=0;entryX=0;entryY=0.5;entryDx=0;entryDy=0;strokeWidth=3;" parent="1" source="cKlKM32kicbf2RL1kfpF-17" target="cKlKM32kicbf2RL1kfpF-19" edge="1">
          <mxGeometry width="50" height="50" relative="1" as="geometry">
            <mxPoint x="310" y="620" as="sourcePoint" />
            <mxPoint x="360" y="570" as="targetPoint" />
          </mxGeometry>
        </mxCell>
        <mxCell id="cKlKM32kicbf2RL1kfpF-62" value="" style="shape=flexArrow;endArrow=classic;html=1;strokeWidth=3;" parent="1" edge="1">
          <mxGeometry width="50" height="50" relative="1" as="geometry">
            <mxPoint x="160" y="506" as="sourcePoint" />
            <mxPoint x="230" y="506" as="targetPoint" />
          </mxGeometry>
        </mxCell>
        <mxCell id="cKlKM32kicbf2RL1kfpF-63" value="" style="shape=flexArrow;endArrow=classic;html=1;strokeWidth=3;endWidth=21.379310344827587;endSize=3.075862068965517;" parent="1" edge="1">
          <mxGeometry width="50" height="50" relative="1" as="geometry">
            <mxPoint x="284.65999999999997" y="435" as="sourcePoint" />
            <mxPoint x="284.65999999999997" y="465" as="targetPoint" />
          </mxGeometry>
        </mxCell>
        <mxCell id="cKlKM32kicbf2RL1kfpF-64" value="&lt;b&gt;Diversified Service Ranking Model&lt;/b&gt;" style="rounded=1;whiteSpace=wrap;html=1;strokeWidth=2;" parent="1" vertex="1">
          <mxGeometry x="656" y="285" width="122" height="70" as="geometry" />
        </mxCell>
        <mxCell id="cKlKM32kicbf2RL1kfpF-65" value="&lt;b&gt;KRPCC: Score Calculation&lt;/b&gt;" style="rounded=1;whiteSpace=wrap;html=1;strokeWidth=2;" parent="1" vertex="1">
          <mxGeometry x="507" y="517" width="90" height="50" as="geometry" />
        </mxCell>
        <mxCell id="cKlKM32kicbf2RL1kfpF-68" value="" style="shape=flexArrow;endArrow=classic;html=1;strokeWidth=3;" parent="1" edge="1">
          <mxGeometry width="50" height="50" relative="1" as="geometry">
            <mxPoint x="640" y="320" as="sourcePoint" />
            <mxPoint x="320" y="320" as="targetPoint" />
          </mxGeometry>
        </mxCell>
        <mxCell id="cKlKM32kicbf2RL1kfpF-69" value="" style="ellipse;whiteSpace=wrap;html=1;aspect=fixed;fillColor=none;" parent="1" vertex="1">
          <mxGeometry x="275" y="310" width="20" height="20" as="geometry" />
        </mxCell>
        <mxCell id="cKlKM32kicbf2RL1kfpF-70" value="" style="ellipse;whiteSpace=wrap;html=1;aspect=fixed;fillColor=none;" parent="1" vertex="1">
          <mxGeometry x="275" y="281" width="20" height="20" as="geometry" />
        </mxCell>
        <mxCell id="cKlKM32kicbf2RL1kfpF-75" value="&lt;b&gt;Service&amp;nbsp;Recommendation&amp;nbsp;List&lt;/b&gt;" style="text;html=1;align=center;verticalAlign=middle;resizable=0;points=[];autosize=1;" parent="1" vertex="1">
          <mxGeometry x="190" y="379.5" width="190" height="20" as="geometry" />
        </mxCell>
        <mxCell id="cKlKM32kicbf2RL1kfpF-78" value="" style="rounded=0;whiteSpace=wrap;html=1;fillColor=none;dashed=1;" parent="1" vertex="1">
          <mxGeometry x="499" y="420" width="311" height="170" as="geometry" />
        </mxCell>
        <mxCell id="cKlKM32kicbf2RL1kfpF-79" value="" style="shape=flexArrow;endArrow=classic;html=1;strokeWidth=3;width=8.965517241379311;endSize=4.048275862068966;endWidth=19.334126040428064;entryX=0;entryY=0.5;entryDx=0;entryDy=0;" parent="1" target="cKlKM32kicbf2RL1kfpF-78" edge="1">
          <mxGeometry width="50" height="50" relative="1" as="geometry">
            <mxPoint x="460" y="505" as="sourcePoint" />
            <mxPoint x="487" y="506.0000000000001" as="targetPoint" />
          </mxGeometry>
        </mxCell>
        <mxCell id="cKlKM32kicbf2RL1kfpF-82" value="" style="shape=flexArrow;endArrow=classic;html=1;strokeWidth=3;width=8.965517241379311;endSize=4.048275862068966;endWidth=19.334126040428064;entryX=0;entryY=0.5;entryDx=0;entryDy=0;" parent="1" edge="1">
          <mxGeometry width="50" height="50" relative="1" as="geometry">
            <mxPoint x="607" y="509.3099999999999" as="sourcePoint" />
            <mxPoint x="646" y="509.3100000000001" as="targetPoint" />
          </mxGeometry>
        </mxCell>
        <mxCell id="cKlKM32kicbf2RL1kfpF-83" value="" style="shape=flexArrow;endArrow=classic;html=1;strokeWidth=3;endWidth=16.551724137931036;endSize=4.606896551724138;width=11.724137931034484;" parent="1" edge="1">
          <mxGeometry width="50" height="50" relative="1" as="geometry">
            <mxPoint x="718.3099999999998" y="414.9999999999999" as="sourcePoint" />
            <mxPoint x="719" y="360" as="targetPoint" />
          </mxGeometry>
        </mxCell>
        <mxCell id="cKlKM32kicbf2RL1kfpF-85" value="&lt;b&gt;&lt;font style=&quot;font-size: 14px&quot;&gt;...&lt;/font&gt;&lt;/b&gt;" style="text;html=1;align=center;verticalAlign=middle;resizable=0;points=[];autosize=1;rotation=90;" parent="1" vertex="1">
          <mxGeometry x="274" y="357" width="30" height="20" as="geometry" />
        </mxCell>
        <mxCell id="cKlKM32kicbf2RL1kfpF-86" value="" style="ellipse;whiteSpace=wrap;html=1;aspect=fixed;fillColor=none;" parent="1" vertex="1">
          <mxGeometry x="275" y="336" width="20" height="20" as="geometry" />
        </mxCell>
        <mxCell id="IOah4Ac1rtpJ04W-Qy3I-1" value="&lt;b&gt;Service&amp;nbsp;Network&amp;nbsp;Construction&lt;/b&gt;" style="text;html=1;align=center;verticalAlign=middle;resizable=0;points=[];autosize=1;" vertex="1" parent="1">
          <mxGeometry x="555" y="570" width="190" height="20" as="geometry" />
        </mxCell>
      </root>
    </mxGraphModel>
  </diagram>
</mxfile>
